<?xml version="1.0" encoding="utf-8"?>
<!-- Generator: Adobe Illustrator 26.0.3, SVG Export Plug-In . SVG Version: 6.00 Build 0)  -->
<svg version="1.1" id="레이어_1" xmlns="http://www.w3.org/2000/svg" xmlns:xlink="http://www.w3.org/1999/xlink" x="0px"
	 y="0px" viewBox="0 0 300 300" style="enable-background:new 0 0 300 300;" xml:space="preserve">
<style type="text/css">
	.st0{fill:#6B63C0;}
	.st1{fill:#FFFFFF;}
	.st2{fill:none;}
</style>
<g>
	<rect class="st0" width="300" height="300"/>
	<g>
		<g>
			<path class="st1" d="M157.3,163.1c0,4.9-4,8.9-8.9,8.9c-4.9,0-8.9-4-8.9-8.9c0-4.9,4-8.9,8.9-8.9
				C153.3,154.2,157.3,158.2,157.3,163.1z"/>
			<g>
				<polygon class="st1" points="198.7,174.8 225.6,217.4 172.9,217.4 162,234.7 257,234.7 209,158.6 				"/>
				<g>
					<polygon class="st1" points="257,65.3 162,65.3 172.9,82.6 225.6,82.6 193.3,133.8 193.3,133.8 183,150 183,150 140.5,217.4 
						114.9,217.4 104,234.7 150,234.7 160.9,217.4 160.9,217.4 193.3,166.2 193.3,166.2 203.5,150 203.5,150 					"/>
					<polygon class="st1" points="102.9,217.4 74.4,217.4 150,97.7 177.6,141.4 187.8,125.2 160.9,82.6 160.9,82.6 150,65.3 
						150,65.3 43,234.7 92,234.7 					"/>
				</g>
			</g>
		</g>
		<g>
			<rect class="st2" width="300" height="300"/>
		</g>
	</g>
</g>
</svg>
