<?xml version="1.0" encoding="UTF-8"?>
<svg width="18px" height="18px" viewBox="0 0 18 18" version="1.1" xmlns="http://www.w3.org/2000/svg" xmlns:xlink="http://www.w3.org/1999/xlink">
    <title>icon-calendar</title>
    <g id="Page-1" stroke="none" stroke-width="1" fill="none" fill-rule="evenodd">
        <g id="icon-calendar" fill="#5A5D61" fill-rule="nonzero">
            <path d="M15.5,1.54545455 L14.75,1.54545455 L14.75,0 L13.25,0 L13.25,1.54545455 L5.75,1.54545455 L5.75,0 L4.25,0 L4.25,1.54545455 L3.5,1.54545455 C2.675,1.54545455 2,2.24090909 2,3.09090909 L2,15.4545455 C2,16.3045455 2.675,17 3.5,17 L15.5,17 C16.325,17 17,16.3045455 17,15.4545455 L17,3.09090909 C17,2.24090909 16.325,1.54545455 15.5,1.54545455 Z M15.5,15.4545455 L3.5,15.4545455 L3.5,6.95454545 L15.5,6.95454545 L15.5,15.4545455 Z M15.5,5.40909091 L3.5,5.40909091 L3.5,3.09090909 L15.5,3.09090909 L15.5,5.40909091 Z" id="Shape"></path>
        </g>
    </g>
</svg>