<?xml version="1.0" encoding="UTF-8"?>
<svg width="245px" height="41px" viewBox="0 0 245 41" version="1.1" xmlns="http://www.w3.org/2000/svg" xmlns:xlink="http://www.w3.org/1999/xlink">
    <title>Group</title>
    <g id="Page-1" stroke="none" stroke-width="1" fill="none" fill-rule="evenodd">
        <g id="[시대인재]ci_final" transform="translate(-2986.000000, -370.000000)" fill="#524C8B" fill-rule="nonzero">
            <g id="Group" transform="translate(2986.000000, 370.000000)">
                <path d="M27,23 C27.0010977,23.5300499 26.791308,24.0387679 26.4168943,24.4139596 C26.0424806,24.7891513 25.5341988,25 25.0041472,25 C24.4729962,25.0010977 23.9632223,24.790871 23.5872521,24.4156796 C23.2112818,24.0404881 23,23.5311515 23,23 C23,22.4688485 23.2112818,21.9595119 23.5872521,21.5843204 C23.9632223,21.209129 24.4729962,20.9989023 25.0041472,21 C25.5341988,21 26.0424806,21.2108487 26.4168943,21.5860404 C26.791308,21.9612321 27.0010977,22.4699501 27,23 Z" id="Path"></path>
                <polygon id="Path" points="36.280124 26.0435308 43.07284 36.6807739 29.7617203 36.6807739 27 41 51 41 38.8651685 22"></polygon>
                <polygon id="Path" points="51 0 28.0218961 0 30.6615736 4.18640017 43.4103705 4.18640017 35.5892685 16.5763632 35.5892685 16.5763632 33.1142926 20.5 33.1142926 20.5 22.8182146 36.8135998 16.6396776 36.8135998 14 41 25.1284889 41 27.7681665 36.8135998 27.7681665 36.8135998 35.5892685 24.4191831 35.5892685 24.4191831 38.0642445 20.5 38.0642445 20.5"></polygon>
                <polygon id="Path" points="7.58451957 36.8135998 25.8585409 7.83836628 32.5311388 18.4112535 35 14.4920704 28.5008897 4.18640017 25.8585409 0 0 41 11.8460854 41 14.4884342 36.8135998"></polygon>
                <path d="M74.742268,23.0666667 C73.6975945,22.0736573 72.7308133,21.0983802 71.8556701,20.1763001 C71.2998809,19.6247251 70.8011377,19.0219168 70.3665521,18.3764706 C70.0150978,17.8427902 69.7218137,17.2752742 69.4914089,16.683035 C69.2705421,16.112323 69.1273026,15.5162503 69.0652921,14.9098039 C68.9918724,14.1983251 68.9566971,13.4836369 68.9599084,12.7686275 L68.9599084,4 L63.4112257,4 L63.4112257,12.7686275 C63.4159252,13.5103387 63.362315,14.2513217 63.2508591,14.9851662 C63.143084,15.6324893 62.9649285,16.2669851 62.7193585,16.8780904 C62.465149,17.4999529 62.1441852,18.0942852 61.7617411,18.6513214 C61.3135289,19.2952816 60.8141162,19.9044584 60.2680412,20.4733163 C58.4902635,22.3529412 56.4100802,24.3212276 54.0870561,26.3294118 L54,26.4092072 L57.583047,30 L57.6655212,29.9246377 C58.8476518,28.8606991 59.8785796,27.9164535 60.7216495,27.1096334 C61.5647194,26.3028133 62.3986254,25.4915601 63.1546392,24.7335038 C63.9106529,23.9754476 64.5063001,23.3326513 65.1202749,22.6366581 C65.5462508,22.1826218 65.9125304,21.679339 66.2107675,21.1382779 C66.4823005,21.6174211 66.8114268,22.0638267 67.1912944,22.4682012 C67.7365407,23.0888321 68.419244,23.7981245 69.2164948,24.5650469 C70.0137457,25.3319693 70.8109966,26.1387894 71.6953036,26.9810742 C72.5796105,27.8233589 73.4822451,28.6656436 74.416953,29.5167945 L74.4994273,29.5921569 L78,26.0456948 L77.9129439,25.9658994 C76.8453608,25.03052 75.7777778,24.055243 74.742268,23.0666667 Z" id="Path"></path>
                <rect id="Rectangle" x="81" y="1" width="5" height="37"></rect>
                <polygon id="Path" points="121.623736 13.5369359 118.376264 13.5369359 118.376264 1 113 1 113 36.2203088 118.376264 36.2203088 118.376264 18.0674584 121.623736 18.0674584 121.623736 38 127 38 127 1 121.623736 1"></polygon>
                <path d="M111.344254,23.7826087 C109.675338,24.0467496 107.993021,24.2201831 106.304888,24.3021277 C104.643065,24.3820537 102.972259,24.4220167 101.337384,24.4220167 L100.277411,24.4220167 L100.277411,9.57798335 L109.736328,9.57798335 L109.736328,5 L95,5 L95,29 L101.32391,29 C103.017173,29 104.809247,28.960037 106.646235,28.880111 C108.406927,28.8079272 110.160887,28.6210277 111.896697,28.320629 L112,28.2984274 L111.447556,23.7648474 L111.344254,23.7826087 Z" id="Path"></path>
                <rect id="Rectangle" x="159" y="1" width="5" height="27"></rect>
                <polygon id="Path" points="144.461877 26 139 26 139 38 164 38 164 33.7088873 144.461877 33.7088873"></polygon>
                <path d="M148.178493,21.2795136 C149.348791,20.8387613 150.419025,20.1728915 151.327233,19.3204549 C152.176786,18.5150195 152.851112,17.5466443 153.308925,16.4746167 C153.764671,15.4174817 153.999729,14.2802355 154.000005,13.1310962 L154.000005,10.8689038 C153.999729,9.71976447 153.764671,8.58251829 153.308925,7.52538327 C152.851112,6.45335567 152.176786,5.48498047 151.327233,4.67954512 C150.419853,3.82605652 149.349393,3.16004621 148.178493,2.72048643 C146.843188,2.22534926 145.426014,1.98136564 144.000005,2.00110922 C142.572513,1.98143913 141.153853,2.22541139 139.816941,2.72048643 C138.647507,3.16294951 137.577595,3.82861901 136.668202,4.67954512 C135.820499,5.4865344 135.146451,6.4545101 134.686509,7.52538327 C134.232213,8.58280437 133.998709,9.7200629 134.000005,10.8689038 L134.000005,13.1310962 C133.998709,14.2799371 134.232213,15.4171956 134.686509,16.4746167 C135.146451,17.5454899 135.820499,18.5134656 136.668202,19.3204549 C137.576409,20.1728915 138.646643,20.8387613 139.816941,21.2795136 C141.153853,21.7745886 142.572513,22.0185609 144.000005,21.9988908 C145.426014,22.0186344 146.843188,21.7746507 148.178493,21.2795136 L148.178493,21.2795136 Z M141.963393,7.02770092 C142.609296,6.76621868 143.302127,6.63693083 144.000005,6.64765258 C144.697808,6.63780385 145.390464,6.76705901 146.036618,7.02770092 C146.608651,7.2582326 147.127198,7.60152171 147.560644,8.03663877 C147.974798,8.46113938 148.302627,8.96032224 148.526319,9.50706388 C148.751817,10.0497439 148.868398,10.6306002 148.869621,11.2172814 L148.869621,12.7646211 C148.872475,13.357552 148.755784,13.9451069 148.526319,14.4929361 C148.302392,15.0341898 147.974451,15.5273971 147.560644,15.9452637 C147.126247,16.3803703 146.608029,16.7249796 146.036618,16.9587259 C145.389653,17.2161709 144.697349,17.3438225 144.000005,17.3342499 C143.302631,17.3441856 142.610255,17.2165208 141.963393,16.9587259 C141.390641,16.7249672 140.870927,16.3803975 140.43479,15.9452637 C140.02345,15.5254374 139.69584,15.0327277 139.469115,14.4929361 C139.242843,13.9443098 139.127775,13.3570906 139.130397,12.7646211 L139.130397,11.2353789 C139.132105,10.6491842 139.247057,10.0687027 139.469115,9.52516142 C139.694498,8.97929198 140.022131,8.48040898 140.43479,8.05473631 C140.86837,7.61318568 141.388509,7.26371563 141.963393,7.02770092 Z" id="Shape"></path>
                <polygon id="Path" points="200.600683 1 200.600683 13.8928741 197.399317 13.8928741 197.399317 1 192 1 192 36.2203088 197.399317 36.2203088 197.399317 18.4233967 200.600683 18.4233967 200.600683 38 206 38 206 1"></polygon>
                <path d="M187.300721,23.1652437 C186.374754,22.1558164 185.553614,21.1775169 184.811094,20.2525792 C184.417995,19.7456421 184.077309,19.265386 183.793405,18.8162576 C183.517162,18.3871295 183.283086,17.9313563 183.094562,17.4555318 C182.909246,16.980725 182.780214,16.4851105 182.710199,15.9791889 C182.626465,15.375283 182.587046,14.7658644 182.592269,14.1559943 L182.592269,9.54464603 L188.213584,9.54464603 L188.213584,5 L171.68159,5 L171.68159,9.54464603 L177.530028,9.54464603 L177.530028,14.1960157 C177.535345,14.8531663 177.495941,15.5099026 177.412099,16.1615084 C177.342444,16.7007082 177.213515,17.2302351 177.027735,17.7401281 C176.834072,18.2430891 176.592703,18.725628 176.307054,19.1808965 C175.975486,19.7013924 175.618331,20.2045224 175.236951,20.6883671 C174.481328,21.6444326 173.629613,22.649413 172.703647,23.6855212 C171.777681,24.7216293 170.904128,25.6421202 170.082988,26.4425471 L170,26.5225898 L173.419961,30 L173.49858,29.9244041 C174.306617,29.1017432 175.14086,28.2034863 175.979472,27.2563145 C176.818083,26.3091427 177.564971,25.4331199 178.220135,24.632693 C178.722428,24.0145856 179.167941,23.4453931 179.530465,22.9473497 C179.796405,22.6088521 180.030389,22.2455685 180.229308,21.8623266 C180.430039,22.2343387 180.665532,22.5857808 180.932518,22.9117752 C181.308146,23.3831377 181.736187,23.907862 182.212273,24.4726076 C182.815025,25.1929918 183.496397,25.9756314 184.238917,26.7982924 C184.981437,27.6209534 185.745796,28.4480612 186.50142,29.2395945 L186.575672,29.3196371 L190,26.0423337 L189.92138,25.962291 C189.113344,25.1129491 188.222319,24.1702241 187.300721,23.1652437 Z" id="Path"></path>
                <polygon id="Path" points="238.854345 37 224.883311 15.515812 224.883311 37 218 37 218 2 224.141211 2 238.112245 23.4312713 238.112245 2 245 2 245 37"></polygon>
            </g>
        </g>
    </g>
</svg>